<?xml version="1.0" encoding="UTF-8"?>
<svg version="1.1" xmlns="http://www.w3.org/2000/svg" width="381" height="369">
<path d="M0 0 C4.35525446 2.36318945 7.57717541 5.44698874 11 9 C11.72058594 9.73089844 12.44117188 10.46179688 13.18359375 11.21484375 C14.61840811 12.6707196 16.04932522 14.13044535 17.4765625 15.59375 C20.57357608 18.54693942 23.83231732 21.22231006 27.1875 23.875 C27.76991455 24.3395459 28.3523291 24.8040918 28.95239258 25.28271484 C32.47449773 28.02240842 35.98840869 30.01406371 40 32 C40.47324707 32.47638916 40.94649414 32.95277832 41.43408203 33.44360352 C44.30838333 36.30042777 48.0042636 37.93349093 51.5625 39.8125 C52.40224365 40.25609863 53.2419873 40.69969727 54.10717773 41.15673828 C61.784487 45.09407759 69.61080226 47.79849297 77.84960938 50.27954102 C80.1751099 51.05866818 82.37958499 52.01168712 84.62890625 52.98828125 C92.13421775 56.05408466 100.16848812 57.10046023 108.125 58.44726562 C116.38967745 60.00015502 124.77187032 62.03507354 131 68 C134.464202 74.52620079 135.5825546 80.50810128 135.48583984 87.81396484 C135.48963654 88.73914917 135.49343323 89.6643335 135.49734497 90.61755371 C135.50469813 93.64903697 135.48342506 96.67954058 135.4609375 99.7109375 C135.45854778 101.84591561 135.45764887 103.98089586 135.4581604 106.11587524 C135.45504023 110.586011 135.43854764 115.05582432 135.41162109 119.52587891 C135.3778499 125.19822662 135.3699875 130.87021757 135.37151146 136.54265404 C135.37096166 140.95447063 135.35989481 145.36621235 135.34550858 149.77800369 C135.33923013 151.86594707 135.33522319 153.95389877 135.33372116 156.04185104 C135.3181509 166.38203912 135.10788511 176.63871851 134.10791016 186.93603516 C134.03125814 187.73382071 133.95460613 188.53160625 133.87563133 189.35356712 C133.10091114 196.5047175 131.3179065 203.18675968 129 210 C128.67 210.99 128.34 211.98 128 213 C127.34 213 126.68 213 126 213 C125.82017578 214.30710938 125.82017578 214.30710938 125.63671875 215.640625 C124.04712354 224.02744638 119.90226186 231.61942808 115.33203125 238.74609375 C113.91777486 241.00455088 113.91777486 241.00455088 112.94921875 243.66015625 C112 246 112 246 110 248 C107.07299431 252.10617084 104.32856547 256.30944985 101.9375 260.75 C99.91833298 264.13698984 97.81228359 266.24194777 95 269 C92.54192088 271.56402158 90.11517579 274.15720936 87.6875 276.75 C87.02032959 277.4608374 86.35315918 278.1716748 85.66577148 278.90405273 C82.23381105 282.57125671 78.85316534 286.26709117 75.5625 290.0625 C72.69293984 293.32447864 69.65935348 296.17408813 66.34375 298.9765625 C62.68999785 302.13096852 59.18024815 305.44028724 55.65551758 308.73754883 C47.20652356 316.59782548 47.20652356 316.59782548 43 318 C41.84957029 319.18426588 40.69992631 320.3693073 39.5546875 321.55859375 C37.14254275 323.79497921 34.41987807 325.47827289 31.6640625 327.26171875 C28.52916436 329.3072168 25.4500964 331.4288224 22.375 333.5625 C21.80845703 333.9531665 21.24191406 334.34383301 20.65820312 334.74633789 C17.88497306 336.66410938 15.16946672 338.62895601 12.5 340.6875 C6.6359013 344.90140007 -1.59727505 349.92680709 -9 349 C-13.11811693 347.61404065 -17.04320165 345.79107993 -21 344 C-21.79792969 343.64292969 -22.59585938 343.28585937 -23.41796875 342.91796875 C-27.38494731 341.04984189 -29.88881451 339.11118549 -33 336 C-34.35866853 335.22080501 -35.73643368 334.47457475 -37.125 333.75 C-41.79815632 331.27052367 -45.70072817 328.16991814 -49.73828125 324.76953125 C-51.78247996 323.17018407 -53.68537756 322.13289537 -56 321 C-57.66666667 319.33333333 -59.33333333 317.66666667 -61 316 C-62.75113557 314.68181627 -64.53438759 313.43609163 -66.3515625 312.2109375 C-68.0865544 310.93641738 -69.49213063 309.53452363 -71 308 C-73.07190547 306.19010592 -75.16336447 304.40482696 -77.2578125 302.62109375 C-79 301 -79 301 -80 299 C-80.71671875 298.58621094 -81.4334375 298.17242187 -82.171875 297.74609375 C-85.67820094 295.58127649 -88.35711483 292.97311118 -91.25 290.0625 C-91.79140625 289.53720703 -92.3328125 289.01191406 -92.890625 288.47070312 C-95.6949848 285.66984878 -97.08962718 283.7871312 -98 280 C-98.5775 279.71125 -99.155 279.4225 -99.75 279.125 C-102.38709893 277.80645054 -103.77566775 276.05553811 -105.58203125 273.765625 C-107.14960794 271.81371132 -108.81775775 269.97875068 -110.5 268.125 C-113.4274992 264.81482117 -115.76139541 261.39565511 -117.95703125 257.56640625 C-118.92601427 255.83006007 -118.92601427 255.83006007 -121 255 C-121.970025 253.36381326 -122.87688937 251.68989153 -123.75 250 C-125.73372588 246.24647946 -127.80783927 242.72169908 -130.25 239.25 C-132.79475483 235.55277766 -134.06831449 232.37892191 -135 228 C-135.66 228 -136.32 228 -137 228 C-137.41572266 226.72769531 -137.41572266 226.72769531 -137.83984375 225.4296875 C-139.01152489 221.96592978 -140.28451041 218.55077509 -141.5625 215.125 C-143.41071333 209.99349004 -144.67394683 205.43421949 -145 200 C-145.66 200 -146.32 200 -147 200 C-149.62913515 184.72852889 -150.4476267 169.92425006 -150.3984375 154.4453125 C-150.40046491 152.16038928 -150.40338185 149.87546669 -150.40713501 147.59054565 C-150.41151448 142.84919958 -150.40526195 138.10802509 -150.39111328 133.36669922 C-150.37388612 127.29986762 -150.38397523 121.23343036 -150.40183067 115.16661263 C-150.4126709 110.46883161 -150.40922338 105.77114428 -150.4014473 101.07336044 C-150.39945305 98.83511177 -150.40187719 96.59685446 -150.40888596 94.35861588 C-150.41651941 91.24161373 -150.4048754 88.12525505 -150.38818359 85.00830078 C-150.39425629 84.09398285 -150.40032898 83.17966492 -150.40658569 82.23764038 C-150.34627212 76.14640001 -149.69446723 70.84450716 -145.31640625 66.22265625 C-144.73761719 65.83980469 -144.15882813 65.45695312 -143.5625 65.0625 C-142.98628906 64.66160156 -142.41007812 64.26070313 -141.81640625 63.84765625 C-140 63 -140 63 -136 63 C-136 62.34 -136 61.68 -136 61 C-132.07174056 60.18034355 -128.14309516 59.36256394 -124.21411133 58.54638672 C-122.23433995 58.13473928 -120.25486155 57.72168354 -118.27539062 57.30859375 C-110.86669305 55.77058565 -103.4535655 54.30430107 -96 53 C-96 52.34 -96 51.68 -96 51 C-94.94683594 50.6596875 -93.89367187 50.319375 -92.80859375 49.96875 C-83.79521052 46.9709507 -75.50783123 43.45161484 -67.2265625 38.80078125 C-64.77590278 37.43304017 -62.36515479 36.21277037 -59.8125 35.0625 C-51.61432852 31.02592755 -44.38058364 24.58988351 -37.71875 18.41015625 C-36 17 -36 17 -33.953125 16.0078125 C-31.75749664 14.87486827 -30.75834744 13.75117009 -29.25 11.8125 C-20.91524863 1.69627505 -13.19404196 -2.00664853 0 0 Z " fill="#E5242A" transform="translate(209,16)"/>
<path d="M0 0 C4.35525446 2.36318945 7.57717541 5.44698874 11 9 C11.72058594 9.73089844 12.44117188 10.46179688 13.18359375 11.21484375 C14.61840811 12.6707196 16.04932522 14.13044535 17.4765625 15.59375 C20.57357608 18.54693942 23.83231732 21.22231006 27.1875 23.875 C27.76991455 24.3395459 28.3523291 24.8040918 28.95239258 25.28271484 C32.47449773 28.02240842 35.98840869 30.01406371 40 32 C40.47324707 32.47638916 40.94649414 32.95277832 41.43408203 33.44360352 C44.30838333 36.30042777 48.0042636 37.93349093 51.5625 39.8125 C52.40224365 40.25609863 53.2419873 40.69969727 54.10717773 41.15673828 C61.784487 45.09407759 69.61080226 47.79849297 77.84960938 50.27954102 C80.1751099 51.05866818 82.37958499 52.01168712 84.62890625 52.98828125 C92.13421775 56.05408466 100.16848812 57.10046023 108.125 58.44726562 C116.96171938 60.10763869 126.86660759 62.68293768 132.65478516 70.12866211 C137.13006751 78.28612617 135.32307686 89.99609633 135 99 C134.41750488 99.10103027 133.83500977 99.20206055 133.23486328 99.30615234 C130.5955142 100.12557883 129.27574763 101.24205289 127.2421875 103.1015625 C126.54577148 103.73352539 125.84935547 104.36548828 125.13183594 105.01660156 C124.42833008 105.67112305 123.72482422 106.32564453 123 107 C122.34547852 107.60553711 121.69095703 108.21107422 121.01660156 108.83496094 C119.04419398 110.67277372 117.08338215 112.52225572 115.125 114.375 C109.96403572 119.23619178 104.76953779 124.04746458 99.48046875 128.76953125 C96.50446744 131.44558912 93.5630045 134.15736736 90.625 136.875 C85.91118685 141.23524264 81.19071878 145.58782304 76.4519043 149.92089844 C73.94878242 152.21017336 71.45236788 154.50597124 68.96875 156.81640625 C63.30324424 162.07307046 57.5310895 167.1231477 51.47265625 171.9296875 C48.81904755 174.15150837 46.41475761 176.52211147 44 179 C40.52322658 182.54709019 37.0366798 186.01639132 33.26953125 189.2578125 C29.07946212 192.90256889 25.03127524 196.68131154 21 200.5 C16.33755417 204.91657466 11.62895442 209.24849665 6.76171875 213.43945312 C4.97739549 214.9732321 4.97739549 214.9732321 3.39453125 216.70117188 C2 218 2 218 0 218 C-0.33 218.99 -0.66 219.98 -1 221 C-3.3125 223.25 -3.3125 223.25 -6 225 C-9.27220143 224.63933652 -11.08825777 223.35258677 -13.5 221.1875 C-14.10972656 220.64351562 -14.71945313 220.09953125 -15.34765625 219.5390625 C-17.28009276 217.73910982 -19.13267152 215.86732848 -21 214 C-22.24537169 212.91134924 -23.49599151 211.82869079 -24.75 210.75 C-27.61639035 208.26579503 -30.33903577 205.70286918 -33 203 C-36.11018926 199.84769986 -39.33367727 196.91608559 -42.6875 194.02734375 C-47.30978725 189.97503449 -51.78736645 185.76012597 -56.29443359 181.58056641 C-59.02570622 179.04946721 -61.76301484 176.52491852 -64.5 174 C-67.7871184 170.96695839 -71.07323558 167.93285972 -74.35546875 164.89453125 C-80.16999923 159.51507284 -86.01484747 154.17665242 -91.921875 148.8984375 C-93.58198986 147.38186641 -95.17800027 145.795227 -96.75 144.1875 C-98.98740843 141.86884146 -98.98740843 141.86884146 -102 140.0625 C-104.52238348 138.32836136 -105.84835886 137.13213747 -107.6875 134.8125 C-109.75901706 131.78480031 -109.75901706 131.78480031 -113 131 C-113 130.34 -113 129.68 -113 129 C-113.57234375 128.75636719 -114.1446875 128.51273438 -114.734375 128.26171875 C-117.40433538 126.77482702 -119.13829007 125.01916092 -121.25 122.8125 C-124.72918636 119.24775987 -128.30964119 115.93050625 -132.08984375 112.69140625 C-134.6428054 110.43080831 -137.00788756 108.00769988 -139.390625 105.5703125 C-141.1515067 103.79666638 -141.1515067 103.79666638 -143.9375 101.6875 C-144.618125 101.130625 -145.29875 100.57375 -146 100 C-146 99.34 -146 98.68 -146 98 C-147.98 98.495 -147.98 98.495 -150 99 C-150.08770383 95.14597871 -150.14062735 91.29221709 -150.1875 87.4375 C-150.21263672 86.35146484 -150.23777344 85.26542969 -150.26367188 84.14648438 C-150.32672093 77.2321047 -150.31418724 71.49873595 -145.31640625 66.22265625 C-144.73761719 65.83980469 -144.15882813 65.45695312 -143.5625 65.0625 C-142.98628906 64.66160156 -142.41007812 64.26070313 -141.81640625 63.84765625 C-140 63 -140 63 -136 63 C-136 62.34 -136 61.68 -136 61 C-132.07174056 60.18034355 -128.14309516 59.36256394 -124.21411133 58.54638672 C-122.23433995 58.13473928 -120.25486155 57.72168354 -118.27539062 57.30859375 C-110.86669305 55.77058565 -103.4535655 54.30430107 -96 53 C-96 52.34 -96 51.68 -96 51 C-94.94683594 50.6596875 -93.89367187 50.319375 -92.80859375 49.96875 C-83.79521052 46.9709507 -75.50783123 43.45161484 -67.2265625 38.80078125 C-64.77590278 37.43304017 -62.36515479 36.21277037 -59.8125 35.0625 C-51.61432852 31.02592755 -44.38058364 24.58988351 -37.71875 18.41015625 C-36 17 -36 17 -33.953125 16.0078125 C-31.75749664 14.87486827 -30.75834744 13.75117009 -29.25 11.8125 C-20.91524863 1.69627505 -13.19404196 -2.00664853 0 0 Z " fill="#222359" transform="translate(209,16)"/>
<path d="M0 0 C7.47720046 6.3867754 14.85280405 12.84912673 22.07592773 19.5234375 C26.22438528 23.33549872 30.47445867 27.01910468 34.75 30.6875 C39.44189836 34.7171926 43.95421448 38.81742816 48.265625 43.2578125 C50.62175158 45.62455226 53.13701771 47.77660695 55.66796875 49.953125 C59.20361978 53.05644349 62.63986482 56.26598055 66.08081055 59.47363281 C68.9837999 62.17103312 71.92189361 64.815696 74.9140625 67.4140625 C78.99654713 70.96939703 82.94284912 74.65498085 86.875 78.375 C92.84604539 83.99885954 98.88603881 89.53167311 105 95 C107.11027998 96.88915725 109.21330971 98.78603161 111.3125 100.6875 C112.27800781 101.55761719 113.24351562 102.42773438 114.23828125 103.32421875 C117.08251026 106.07994275 119.52196932 108.91713123 122 112 C121.236875 112.825 120.47375 113.65 119.6875 114.5 C113.21799345 122.45822823 113.05953128 131.0716427 114 141 C115.84226348 148.64320028 120.56786388 153.84618525 126.85546875 158.3203125 C134.23301605 162.40150888 142.84724982 161.33696786 151 161 C151 160.34 151 159.68 151 159 C151.87011719 158.5978125 151.87011719 158.5978125 152.7578125 158.1875 C159.75436598 154.67767779 164.1752632 150.52711518 167.12890625 143.19921875 C168.99006435 136.3638444 169.44979773 128.58104612 166.76171875 121.94140625 C165.29490356 119.49186128 163.7588614 117.24672077 162 115 C161.43925781 114.25105469 160.87851563 113.50210938 160.30078125 112.73046875 C159.87152344 112.15941406 159.44226563 111.58835937 159 111 C160.61886415 109.32737283 162.2452729 107.66204463 163.875 106 C164.77992188 105.071875 165.68484375 104.14375 166.6171875 103.1875 C169 101 169 101 171 101 C171 100.34 171 99.68 171 99 C172.22265625 97.765625 172.22265625 97.765625 174.0625 96.25 C178.33338095 92.62622222 182.4203918 88.83533536 186.5 85 C190.98500669 80.79407258 195.48568536 76.6277417 200.140625 72.609375 C207.36533528 66.35605433 214.34352233 59.83300748 221.31933594 53.30566406 C231.63299578 43.6584093 241.99181157 34.03609368 252.6875 24.8125 C256.71803726 21.30732809 260.60341431 17.6522752 264.5 14 C273.13233168 5.92167729 273.13233168 5.92167729 276.8125 2.625 C277.39644531 2.10164062 277.98039062 1.57828125 278.58203125 1.0390625 C280 0 280 0 282 0 C286.65233155 13.95699465 280.33340704 33.66171166 276 47 C275.34 47 274.68 47 274 47 C273.82017578 48.30710937 273.82017578 48.30710937 273.63671875 49.640625 C272.04712354 58.02744638 267.90226186 65.61942808 263.33203125 72.74609375 C261.91777486 75.00455088 261.91777486 75.00455088 260.94921875 77.66015625 C260 80 260 80 258 82 C255.07299431 86.10617084 252.32856547 90.30944985 249.9375 94.75 C247.91833298 98.13698984 245.81228359 100.24194777 243 103 C240.54192088 105.56402158 238.11517579 108.15720936 235.6875 110.75 C235.02032959 111.4608374 234.35315918 112.1716748 233.66577148 112.90405273 C230.23381105 116.57125671 226.85316534 120.26709117 223.5625 124.0625 C220.69293984 127.32447864 217.65935348 130.17408813 214.34375 132.9765625 C210.68999785 136.13096852 207.18024815 139.44028724 203.65551758 142.73754883 C195.20652356 150.59782548 195.20652356 150.59782548 191 152 C189.84957029 153.18426588 188.69992631 154.3693073 187.5546875 155.55859375 C185.14254275 157.79497921 182.41987807 159.47827289 179.6640625 161.26171875 C176.52916436 163.3072168 173.4500964 165.4288224 170.375 167.5625 C169.80845703 167.9531665 169.24191406 168.34383301 168.65820312 168.74633789 C165.88497306 170.66410938 163.16946672 172.62895601 160.5 174.6875 C154.6359013 178.90140007 146.40272495 183.92680709 139 183 C134.88188307 181.61404065 130.95679835 179.79107993 127 178 C126.20207031 177.64292969 125.40414062 177.28585937 124.58203125 176.91796875 C120.61505269 175.04984189 118.11118549 173.11118549 115 170 C113.64133147 169.22080501 112.26356632 168.47457475 110.875 167.75 C106.20184368 165.27052367 102.29927183 162.16991814 98.26171875 158.76953125 C96.21752004 157.17018407 94.31462244 156.13289537 92 155 C90.33333333 153.33333333 88.66666667 151.66666667 87 150 C85.24886443 148.68181627 83.46561241 147.43609163 81.6484375 146.2109375 C79.9134456 144.93641738 78.50786937 143.53452363 77 142 C74.92809453 140.19010592 72.83663553 138.40482696 70.7421875 136.62109375 C69 135 69 135 68 133 C66.92492187 132.37931641 66.92492187 132.37931641 65.828125 131.74609375 C62.32179906 129.58127649 59.64288517 126.97311118 56.75 124.0625 C56.20859375 123.53720703 55.6671875 123.01191406 55.109375 122.47070312 C52.3050152 119.66984878 50.91037282 117.7871312 50 114 C49.4225 113.71125 48.845 113.4225 48.25 113.125 C45.61290107 111.80645054 44.22433225 110.05553811 42.41796875 107.765625 C40.85039206 105.81371132 39.18224225 103.97875068 37.5 102.125 C34.5725008 98.81482117 32.23860459 95.39565511 30.04296875 91.56640625 C29.07398573 89.83006007 29.07398573 89.83006007 27 89 C26.029975 87.36381326 25.12311063 85.68989153 24.25 84 C22.26627412 80.24647946 20.19216073 76.72169908 17.75 73.25 C15.20524517 69.55277766 13.93168551 66.37892191 13 62 C12.34 62 11.68 62 11 62 C10.72285156 61.15179688 10.44570312 60.30359375 10.16015625 59.4296875 C8.98847511 55.96592978 7.71548959 52.55077509 6.4375 49.125 C4.58928667 43.99349004 3.32605317 39.43421949 3 34 C2.34 34 1.68 34 1 34 C-2.58165209 11.19872014 -2.58165209 11.19872014 -2 2 C-1.34 2 -0.68 2 0 2 C0 1.34 0 0.68 0 0 Z " fill="#222359" transform="translate(61,182)"/>
<path d="M0 0 C0.66 0 1.32 0 2 0 C2 11.55 2 23.1 2 35 C1.67 34.01 1.34 33.02 1 32 C-5.0132093 36.77519562 -10.76631854 41.60705785 -16.12109375 47.11328125 C-18.54902569 49.55130855 -21.12713021 51.77668484 -23.734375 54.01953125 C-26.53316122 56.46605645 -29.26694858 58.98071391 -32 61.5 C-35.23498878 64.48015924 -38.47825208 67.44315811 -41.8125 70.3125 C-46.39550067 74.28570432 -50.79698532 78.45238541 -55.22314453 82.59814453 C-60.14935625 87.21150331 -65.10778041 91.7869218 -70.08984375 96.33984375 C-72.10606533 98.18285972 -74.11939517 100.02861363 -76.12890625 101.87890625 C-80.96418259 106.32856553 -85.81814639 110.74500531 -90.79296875 115.0390625 C-92.63515012 116.67583249 -94.44093814 118.33807356 -96.23828125 120.0234375 C-96.81650635 120.56427979 -97.39473145 121.10512207 -97.99047852 121.66235352 C-99.14186958 122.74217205 -100.28965216 123.82585439 -101.43334961 124.91381836 C-104.12241378 127.43362081 -106.55256719 129.61935337 -110 131 C-110 131.66 -110 132.32 -110 133 C-111.64453125 134.5859375 -111.64453125 134.5859375 -113.8125 136.375 C-116.64479813 138.7171919 -118.89262439 140.98186585 -121 144 C-120.60167969 144.43570313 -120.20335937 144.87140625 -119.79296875 145.3203125 C-119.26316406 145.91585937 -118.73335937 146.51140625 -118.1875 147.125 C-117.66542969 147.70507812 -117.14335937 148.28515625 -116.60546875 148.8828125 C-111.08282948 156.16570906 -111.16941126 163.16216253 -112 172 C-113.91155488 179.54902179 -118.57779448 185.95983902 -125.25 189.9375 C-128 191 -128 191 -130 191 C-130 191.66 -130 192.32 -130 193 C-138.01046095 194.79796843 -146.3725006 195.30229022 -153.83203125 191.45703125 C-159.63729136 187.55547806 -165.61376833 182.33640983 -167.6328125 175.421875 C-169.08103719 165.86975468 -168.99914337 156.48620017 -164 148 C-162.69589031 146.31036883 -161.3680889 144.63825771 -160 143 C-168.66420879 134.18702053 -168.66420879 134.18702053 -177.8203125 125.89453125 C-180.70723324 123.3852901 -183.50767148 120.78780131 -186.3125 118.1875 C-196.91702837 108.34175852 -196.91702837 108.34175852 -207.75 98.75 C-212.34915611 94.75401191 -216.77217757 90.57048086 -221.21850586 86.40649414 C-231.56163459 76.72129583 -241.95585921 67.06709775 -252.6875 57.8125 C-256.71806565 54.3073034 -260.60293552 50.65180135 -264.5 47 C-266.42965619 45.19832273 -268.36007195 43.39746525 -270.29101562 41.59716797 C-271.74559019 40.23776414 -273.19379303 38.87154771 -274.640625 37.50390625 C-275.68476563 36.54291016 -275.68476563 36.54291016 -276.75 35.5625 C-277.32234375 35.02753906 -277.8946875 34.49257812 -278.484375 33.94140625 C-278.98453125 33.63074219 -279.4846875 33.32007813 -280 33 C-281.485 33.495 -281.485 33.495 -283 34 C-283 23.44 -283 12.88 -283 2 C-278.52384679 3.1190383 -276.45390876 5.03894551 -273.25 8.125 C-272.16863272 9.1426331 -271.08660243 10.15956213 -270.00390625 11.17578125 C-269.48328613 11.66771973 -268.96266602 12.1596582 -268.42626953 12.66650391 C-266.71910371 14.26262505 -264.96377842 15.79387955 -263.1875 17.3125 C-258.55167642 21.32892336 -254.1063229 25.54929167 -249.63183594 29.74316406 C-245.33411014 33.76733993 -240.98892943 37.73025501 -236.59765625 41.65234375 C-233.32525894 44.60980358 -230.10072066 47.61682004 -226.875 50.625 C-222.67722889 54.53787466 -218.44918738 58.39355887 -214.10546875 62.14453125 C-209.54594503 66.1626644 -205.12047762 70.33217591 -200.66259766 74.46240234 C-198.09486847 76.83708053 -195.5169073 79.20052051 -192.9375 81.5625 C-192.44813965 82.01061035 -191.9587793 82.4587207 -191.45458984 82.92041016 C-190.46731251 83.82441138 -189.48000786 84.72838278 -188.49267578 85.63232422 C-186.97185124 87.02579152 -185.45252676 88.42087751 -183.93359375 89.81640625 C-179.32926052 94.04523476 -174.71723405 98.26403086 -170.0625 102.4375 C-165.56444014 106.47199169 -161.12623095 110.56828028 -156.70019531 114.68139648 C-153.0505352 118.06327669 -149.33253718 121.33898442 -145.48828125 124.5 C-143.81343403 126.18803499 -142.94830346 127.83244923 -142 130 C-142.4844458 130.38969971 -142.9688916 130.77939941 -143.46801758 131.1809082 C-145.47673728 133.56608279 -145.42236982 135.01399593 -145.51171875 138.10546875 C-145.54716797 139.08837891 -145.58261719 140.07128906 -145.61914062 141.08398438 C-145.64169922 142.10814453 -145.66425781 143.13230469 -145.6875 144.1875 C-145.72166016 145.22326172 -145.75582031 146.25902344 -145.79101562 147.32617188 C-145.87352642 149.8840066 -145.94266572 152.44149723 -146 155 C-147.98 153.35 -149.96 151.7 -152 150 C-155.68654187 151.18495989 -157.4579233 153.42878248 -159.234375 156.8125 C-161.2384781 162.53850886 -160.88317545 168.78590873 -158.4375 174.3125 C-155.58000616 179.27229287 -151.44551331 183.1848289 -146 185 C-139.77290476 185.67469416 -135.12674061 185.13853994 -129.69140625 181.97265625 C-128 181 -128 181 -125 180 C-123.89363605 177.60931266 -123.89363605 177.60931266 -123 175 C-122.34 174.01 -121.68 173.02 -121 172 C-120.31314 165.31872545 -119.97509542 158.66468052 -124 153 C-125.56102491 151.18445841 -125.56102491 151.18445841 -127 150 C-129.95950142 151.37405423 -132.41495396 153.01776932 -135 155 C-135.01458252 154.34926514 -135.02916504 153.69853027 -135.04418945 153.02807617 C-135.11864549 150.08061694 -135.21531266 147.13429358 -135.3125 144.1875 C-135.33505859 143.16333984 -135.35761719 142.13917969 -135.38085938 141.08398438 C-135.41630859 140.10107422 -135.45175781 139.11816406 -135.48828125 138.10546875 C-135.51446533 137.19949951 -135.54064941 136.29353027 -135.56762695 135.36010742 C-136.06913046 132.6226515 -136.8647772 131.71762393 -139 130 C-137.66196542 126.99125902 -136.22415624 125.01614357 -133.8046875 122.79296875 C-132.86109375 121.91898438 -132.86109375 121.91898438 -131.8984375 121.02734375 C-131.23070312 120.42019531 -130.56296875 119.81304687 -129.875 119.1875 C-129.18921875 118.55585938 -128.5034375 117.92421875 -127.796875 117.2734375 C-123.98666394 113.77470758 -120.13253309 110.3345372 -116.2109375 106.9609375 C-112.27926613 103.47383674 -108.46981435 99.85390504 -104.63549805 96.26049805 C-100.28808932 92.1903876 -95.89723246 88.17596732 -91.45703125 84.20703125 C-88.61941848 81.65814219 -85.80823505 79.08112775 -83 76.5 C-79.35077534 73.14701809 -75.68830344 69.81001591 -72 66.5 C-66.80938114 61.84005144 -61.66887157 57.12641725 -56.53222656 52.40722656 C-54.02322888 50.10291448 -51.51149532 47.80158909 -49 45.5 C-47.99998648 44.58334808 -46.99998649 43.6666814 -46 42.75 C-44 40.91666667 -42 39.08333333 -40 37.25 C-39.50483887 36.79608887 -39.00967773 36.34217773 -38.49951172 35.87451172 C-37.50119339 34.95941367 -36.50282114 34.04437445 -35.50439453 33.12939453 C-32.9782158 30.81421148 -30.45303168 28.4979599 -27.9296875 26.1796875 C-19.54739967 18.48123195 -11.16416524 10.78760945 -2.49609375 3.41015625 C-0.88204282 2.05086049 -0.88204282 2.05086049 0 0 Z " fill="#FCFBFA" transform="translate(342,150)"/>
<path d="M0 0 C1.2351535 -0.00990463 2.47030701 -0.01980927 3.7428894 -0.03001404 C5.10887245 -0.02577604 6.47485454 -0.02121818 7.84083557 -0.01637268 C9.28157583 -0.02207588 10.72231156 -0.02903994 12.16304016 -0.03717041 C16.07423639 -0.05512304 19.98520852 -0.0539295 23.89643359 -0.04822803 C27.16190079 -0.0451391 30.42732475 -0.05122534 33.6927858 -0.05726677 C41.39663188 -0.07131739 49.10036709 -0.06974637 56.80421448 -0.05836487 C64.75116664 -0.04688363 72.69778133 -0.06095802 80.64468902 -0.08776134 C87.46859471 -0.10991504 94.29239444 -0.11655647 101.11633354 -0.11068493 C105.19155428 -0.10731326 109.2665587 -0.10974412 113.34174919 -0.12693596 C117.17419341 -0.14239785 121.0061376 -0.13845846 124.83856201 -0.11963081 C126.24422675 -0.11594273 127.64992847 -0.11905989 129.05555916 -0.1295166 C130.97596635 -0.14271093 132.8965026 -0.12878048 134.81689453 -0.11352539 C135.89111884 -0.11331611 136.96534315 -0.11310682 138.07211971 -0.1128912 C141.71007474 0.51509816 143.39110223 1.78682519 145.97193909 4.38768005 C147.30557214 11.59105332 146.78082066 19.08332434 142.97193909 25.38768005 C139.81022896 29.83116455 137.09072507 32.42729393 131.97193909 34.38768005 C130.65193909 34.38768005 129.33193909 34.38768005 127.97193909 34.38768005 C127.99550476 35.3183429 127.99550476 35.3183429 128.01954651 36.26780701 C128.08190123 39.07850533 128.12093057 41.88905817 128.15943909 44.70018005 C128.18457581 45.6766449 128.20971252 46.65310974 128.23561096 47.65916443 C128.25011292 49.06585388 128.25011292 49.06585388 128.26490784 50.5009613 C128.28847351 51.79707336 128.28847351 51.79707336 128.31251526 53.11936951 C127.88744574 55.95042392 127.2077403 56.64475758 124.97193909 58.38768005 C122.81517792 58.76520348 122.81517792 58.76520348 120.26551819 58.76863098 C119.29810196 58.77709045 118.33068573 58.78554993 117.33395386 58.79426575 C115.74419991 58.78515671 115.74419991 58.78515671 114.12232971 58.77586365 C113.0050499 58.78112061 111.88777008 58.78637756 110.7366333 58.79179382 C107.03367746 58.8050262 103.3311495 58.79624396 99.62818909 58.78611755 C97.0613344 58.78813735 94.49448028 58.79104799 91.92762756 58.79481506 C86.54406249 58.79924283 81.16065902 58.79307777 75.77711487 58.77879333 C69.55189131 58.76246644 63.3269625 58.76775486 57.10174608 58.78427255 C51.11468459 58.79952286 45.1277674 58.79791389 39.14068604 58.78912735 C36.59211181 58.78712194 34.04353009 58.7895965 31.4949646 58.79656601 C27.93695467 58.80416 24.37951571 58.79260438 20.82154846 58.77586365 C19.76171249 58.78193634 18.70187653 58.78800903 17.60992432 58.79426575 C16.15879997 58.78157654 16.15879997 58.78157654 14.67835999 58.76863098 C13.41627842 58.76693437 13.41627842 58.76693437 12.12870026 58.76520348 C9.47328325 58.30039442 8.58412246 57.51332132 6.97193909 55.38768005 C6.63136292 53.11936951 6.63136292 53.11936951 6.67897034 50.5009613 C6.68863831 49.56316833 6.69830627 48.62537537 6.70826721 47.65916443 C6.73340393 46.68269958 6.75854065 45.70623474 6.78443909 44.70018005 C6.80474182 43.21808044 6.80474182 43.21808044 6.82545471 41.70603943 C6.86081706 39.26603775 6.91016876 36.82713287 6.97193909 34.38768005 C5.87107971 34.25361755 4.77022034 34.11955505 3.63600159 33.98143005 C-1.31822695 33.17861264 -3.25056722 31.47856106 -6.44602966 27.7197113 C-10.03228275 22.52617392 -10.52001894 17.65500952 -10.59056091 11.51268005 C-10.61243469 10.38793274 -10.61243469 10.38793274 -10.63475037 9.24046326 C-10.53521395 3.90953432 -10.53521395 3.90953432 -8.36941433 1.68095303 C-5.40071253 0.0411571 -3.38717569 0.00766448 0 0 Z " fill="#009FE4" transform="translate(134.02806091308594,94.61231994628906)"/>
<path d="M0 0 C4.47615321 1.1190383 6.54609124 3.03894551 9.75 6.125 C10.83136728 7.1426331 11.91339757 8.15956213 12.99609375 9.17578125 C13.51671387 9.66771973 14.03733398 10.1596582 14.57373047 10.66650391 C16.28089629 12.26262505 18.03622158 13.79387955 19.8125 15.3125 C24.44832358 19.32892336 28.8936771 23.54929167 33.36816406 27.74316406 C37.66588986 31.76733993 42.01107057 35.73025501 46.40234375 39.65234375 C49.67474106 42.60980358 52.89927934 45.61682004 56.125 48.625 C60.32277111 52.53787466 64.55081262 56.39355887 68.89453125 60.14453125 C73.45405497 64.1626644 77.87952238 68.33217591 82.33740234 72.46240234 C84.90513153 74.83708053 87.4830927 77.20052051 90.0625 79.5625 C90.55186035 80.01061035 91.0412207 80.4587207 91.54541016 80.92041016 C92.53268749 81.82441138 93.51999214 82.72838278 94.50732422 83.63232422 C96.02814876 85.02579152 97.54747324 86.42087751 99.06640625 87.81640625 C103.67073948 92.04523476 108.28276595 96.26403086 112.9375 100.4375 C117.43555986 104.47199169 121.87376905 108.56828028 126.29980469 112.68139648 C129.9494648 116.06327669 133.66746282 119.33898442 137.51171875 122.5 C139.18656597 124.18803499 140.05169654 125.83244923 141 128 C140.5155542 128.38969971 140.0311084 128.77939941 139.53198242 129.1809082 C137.52326272 131.56608279 137.57763018 133.01399593 137.48828125 136.10546875 C137.45283203 137.08837891 137.41738281 138.07128906 137.38085938 139.08398438 C137.35830078 140.10814453 137.33574219 141.13230469 137.3125 142.1875 C137.27833984 143.22326172 137.24417969 144.25902344 137.20898438 145.32617188 C137.12647358 147.8840066 137.05733428 150.44149723 137 153 C134.73788365 151.39301605 132.83650969 150.04064117 131 148 C130.6328125 145.10546875 130.6328125 145.10546875 131.125 142.1875 C131.27195313 141.21167969 131.41890625 140.23585938 131.5703125 139.23046875 C131.71210938 138.49441406 131.85390625 137.75835937 132 137 C130.9275 137.70125 129.855 138.4025 128.75 139.125 C126.921875 140.3203125 126.921875 140.3203125 125 141 C121.23113168 139.85262275 118.926199 137.09523558 116.25 134.3125 C112.70004414 130.69020152 109.09872343 127.26264104 105.25 123.96484375 C102.34411449 121.42723887 99.51676986 118.80992062 96.6875 116.1875 C86.08293488 106.34179997 86.08293488 106.34179997 75.25 96.75 C70.65084389 92.75401191 66.22782243 88.57048086 61.78149414 84.40649414 C51.43836541 74.72129583 41.04414079 65.06709775 30.3125 55.8125 C26.28193435 52.3073034 22.39706448 48.65180135 18.5 45 C16.57034381 43.19832273 14.63992805 41.39746525 12.70898438 39.59716797 C11.25440981 38.23776414 9.80620697 36.87154771 8.359375 35.50390625 C7.31523438 34.54291016 7.31523438 34.54291016 6.25 33.5625 C5.67765625 33.02753906 5.1053125 32.49257812 4.515625 31.94140625 C4.01546875 31.63074219 3.5153125 31.32007813 3 31 C2.01 31.33 1.02 31.66 0 32 C0 21.44 0 10.88 0 0 Z " fill="#FCFBFB" transform="translate(59,152)"/>
<path d="M0 0 C4.65233155 13.95699465 -1.66659296 33.66171166 -6 47 C-6.66 47 -7.32 47 -8 47 C-8.11988281 47.87140625 -8.23976563 48.7428125 -8.36328125 49.640625 C-9.95287646 58.02744638 -14.09773814 65.61942808 -18.66796875 72.74609375 C-20.08222514 75.00455088 -20.08222514 75.00455088 -21.05078125 77.66015625 C-22.47906872 81.18091426 -25.00886922 82.8065041 -28 85 C-28 84.34 -28 83.68 -28 83 C-28.94875 83.061875 -29.8975 83.12375 -30.875 83.1875 C-39.04539604 83.17102743 -46.75467249 79.44765584 -54 76 C-54 75.34 -54 74.68 -54 74 C-54.83789062 73.72414063 -55.67578125 73.44828125 -56.5390625 73.1640625 C-60.1673275 71.94372055 -63.77158635 70.6667898 -67.375 69.375 C-68.01566406 69.14554687 -68.65632813 68.91609375 -69.31640625 68.6796875 C-70.87781405 68.12037724 -72.43893701 67.56027192 -74 67 C-69.10311635 60.87889544 -63.46423146 55.72638647 -57.65283203 50.49560547 C-54.87171409 47.97904292 -52.12564759 45.42475759 -49.375 42.875 C-42.76634316 36.76581189 -36.12757896 30.69160245 -29.3125 24.8125 C-25.28196274 21.30732809 -21.39658569 17.6522752 -17.5 14 C-8.86766832 5.92167729 -8.86766832 5.92167729 -5.1875 2.625 C-4.60355469 2.10164062 -4.01960938 1.57828125 -3.41796875 1.0390625 C-2 0 -2 0 0 0 Z " fill="#029DE1" transform="translate(343,182)"/>
<path d="M0 0 C7.47720046 6.3867754 14.85280405 12.84912673 22.07592773 19.5234375 C26.22438528 23.33549872 30.47445867 27.01910468 34.75 30.6875 C39.44189836 34.7171926 43.95421448 38.81742816 48.265625 43.2578125 C50.61583633 45.61861037 53.12459733 47.76558973 55.6484375 49.9375 C58.75019012 52.65797406 61.78203649 55.45058469 64.8125 58.25 C65.37606201 58.76981445 65.93962402 59.28962891 66.52026367 59.82519531 C69.05843465 62.17375694 71.58425828 64.52492427 74 67 C73.2471875 67.1959375 72.494375 67.391875 71.71875 67.59375 C64.22998415 69.70223747 57.59984667 72.46878096 50.734375 76.09375 C44.56626339 79.33547737 38.54154437 82.19850386 31.5 82.6875 C30.6440625 82.75324219 29.788125 82.81898438 28.90625 82.88671875 C27.96265625 82.94279297 27.96265625 82.94279297 27 83 C27 83.66 27 84.32 27 85 C26.34 85 25.68 85 25 85 C23.60882054 83.02464562 22.35407164 81.07334844 21.125 79 C20.76857422 78.40856201 20.41214844 77.81712402 20.04492188 77.20776367 C13 65.40558765 13 65.40558765 13 62 C12.34 62 11.68 62 11 62 C10.72285156 61.15179688 10.44570312 60.30359375 10.16015625 59.4296875 C8.98847511 55.96592978 7.71548959 52.55077509 6.4375 49.125 C4.58928667 43.99349004 3.32605317 39.43421949 3 34 C2.34 34 1.68 34 1 34 C-2.58165209 11.19872014 -2.58165209 11.19872014 -2 2 C-1.34 2 -0.68 2 0 2 C0 1.34 0 0.68 0 0 Z " fill="#029CDF" transform="translate(61,182)"/>
<path d="M0 0 C2.5625 0.1875 2.5625 0.1875 4.5625 2.1875 C5.29395734 4.08263947 6.01993468 5.98027664 6.70458984 7.89282227 C7.60328144 10.29657931 8.61187351 12.624481 9.6640625 14.96484375 C10.02064941 15.76011475 10.37723633 16.55538574 10.74462891 17.37475586 C11.01452637 17.97296143 11.28442383 18.57116699 11.5625 19.1875 C12.15788574 19.2376123 12.75327148 19.28772461 13.36669922 19.33935547 C16.0578614 19.57110757 18.74759264 19.81662852 21.4375 20.0625 C22.84322266 20.18044922 22.84322266 20.18044922 24.27734375 20.30078125 C25.62119141 20.42646484 25.62119141 20.42646484 26.9921875 20.5546875 C27.81960449 20.62800293 28.64702148 20.70131836 29.49951172 20.77685547 C31.5625 21.1875 31.5625 21.1875 33.5625 23.1875 C33.55592258 26.99582785 32.50799952 28.24697696 29.91015625 31.08203125 C28.82550687 32.0662746 27.73003945 33.03870552 26.625 34 C26.07392578 34.50208984 25.52285156 35.00417969 24.95507812 35.52148438 C20.85013818 39.1875 20.85013818 39.1875 18.5625 39.1875 C18.85125 40.34507813 19.14 41.50265625 19.4375 42.6953125 C19.81285971 44.23428731 20.18783965 45.77335478 20.5625 47.3125 C20.75328125 48.07304688 20.9440625 48.83359375 21.140625 49.6171875 C22.16635293 53.86663179 22.99080999 57.78393795 22.5625 62.1875 C21.9025 62.8475 21.2425 63.5075 20.5625 64.1875 C15.52006295 63.94633997 11.84667061 61.90829344 7.6875 59.25 C7.09453125 58.88970703 6.5015625 58.52941406 5.890625 58.15820312 C4.40714022 57.2301706 2.97884641 56.21508664 1.5625 55.1875 C1.5625 54.5275 1.5625 53.8675 1.5625 53.1875 C-4.79159853 56.61915113 -4.79159853 56.61915113 -10.875 60.5 C-13.4375 62.1875 -13.4375 62.1875 -15.4375 62.1875 C-15.4375 62.8475 -15.4375 63.5075 -15.4375 64.1875 C-17.8125 64.3125 -17.8125 64.3125 -20.4375 64.1875 C-21.0975 63.5275 -21.7575 62.8675 -22.4375 62.1875 C-22.18405235 54.45734669 -19.86322207 47.48723107 -17.4375 40.1875 C-17.96859375 39.95675781 -18.4996875 39.72601563 -19.046875 39.48828125 C-22.19609452 37.77473533 -24.91521691 35.62665098 -27.6875 33.375 C-28.24179688 32.94896484 -28.79609375 32.52292969 -29.3671875 32.08398438 C-31.92318589 30.00330096 -33.32885678 28.7929231 -33.921875 25.48828125 C-33.4375 23.1875 -33.4375 23.1875 -31.4375 21.1875 C-29.37451172 20.77685547 -29.37451172 20.77685547 -26.8671875 20.5546875 C-25.97128906 20.47089844 -25.07539063 20.38710938 -24.15234375 20.30078125 C-23.21519531 20.22214844 -22.27804688 20.14351562 -21.3125 20.0625 C-20.36761719 19.97613281 -19.42273438 19.88976562 -18.44921875 19.80078125 C-16.11257582 19.58835917 -13.7755033 19.38428458 -11.4375 19.1875 C-8.80969586 13.28680363 -8.80969586 13.28680363 -6.20703125 7.375 C-5.89121094 6.653125 -5.57539063 5.93125 -5.25 5.1875 C-4.92644531 4.445 -4.60289062 3.7025 -4.26953125 2.9375 C-3.04238508 0.35646017 -2.95890641 0.22760819 0 0 Z " fill="#F4BD16" transform="translate(201.4375,27.8125)"/>
<path d="M0 0 C0 5.61 0 11.22 0 17 C1.65 17 3.3 17 5 17 C11.31286964 20.31513824 15.74739472 25.24218417 18 32 C18.17143087 34.28761847 18.26643463 36.58142969 18.3125 38.875 C18.36857422 40.69644531 18.36857422 40.69644531 18.42578125 42.5546875 C17.89700039 46.83344636 17.22305171 48.13036886 14 51 C10.53896194 51.81504956 7.11877614 51.81983049 3.57421875 51.83984375 C2.55326614 51.85648575 1.53231354 51.87312775 0.48042297 51.89027405 C-1.67887118 51.91557349 -3.83836053 51.9273171 -5.99780273 51.92651367 C-9.29285344 51.93743488 -12.57948293 52.02814214 -15.87304688 52.12304688 C-31.19836224 52.32657168 -31.19836224 52.32657168 -35.97021484 48.81298828 C-37.77637001 46.24152106 -38.92629367 43.9401546 -40 41 C-40.66 40.01 -41.32 39.02 -42 38 C-40.38113585 36.32737283 -38.7547271 34.66204463 -37.125 33 C-36.22007812 32.071875 -35.31515625 31.14375 -34.3828125 30.1875 C-32 28 -32 28 -30 28 C-30 27.34 -30 26.68 -30 26 C-28.77734375 24.765625 -28.77734375 24.765625 -26.9375 23.25 C-21.95058727 19.02138349 -17.20904394 14.5514167 -12.45678711 10.06347656 C-1.75212013 0 -1.75212013 0 0 0 Z " fill="#019EE2" transform="translate(262,255)"/>
<path d="M0 0 C5.1419526 3.67282329 9.61557128 7.48850261 14.01953125 12.01171875 C15.84895467 13.84835883 17.72438287 15.55850914 19.6875 17.25 C23.40917001 20.46215566 27.06017966 23.74463622 30.6875 27.0625 C31.2343042 27.55717773 31.7811084 28.05185547 32.34448242 28.56152344 C35.89442842 31.82144646 38.98647783 35.23729049 42 39 C40.79557292 40.3671875 39.59114583 41.734375 38.38671875 43.1015625 C36.57870982 45.57675219 35.34767469 48.25250359 34 51 C27.21912367 51.10128166 20.43844178 51.17141525 13.65698242 51.21972656 C11.34929109 51.23986263 9.04165089 51.26717356 6.73413086 51.30175781 C3.42028192 51.35018715 0.10710653 51.37294884 -3.20703125 51.390625 C-4.2414888 51.41127014 -5.27594635 51.43191528 -6.3417511 51.45318604 C-7.78290535 51.45363922 -7.78290535 51.45363922 -9.25317383 51.45410156 C-10.09922684 51.46298401 -10.94527985 51.47186646 -11.81697083 51.48101807 C-14 51 -14 51 -15.77177429 49.16766357 C-19.0286905 43.41961696 -17.64733073 34.26673261 -16 28.0625 C-14.07360278 23.17803311 -10.49094769 19.64265923 -6 17 C-4.02 16.67 -2.04 16.34 0 16 C0 10.72 0 5.44 0 0 Z " fill="#019DE1" transform="translate(141,255)"/>
<path d="M0 0 C43.56 0 87.12 0 132 0 C132 6 132 6 129.73855591 8.83456421 C125.07619187 12.22545248 119.72307799 11.69735382 114.18310547 11.64697266 C112.40652557 11.66011505 112.40652557 11.66011505 110.59405518 11.67352295 C107.35835978 11.69171675 104.12369268 11.68751436 100.88801336 11.67162752 C97.4972712 11.65893418 94.1065958 11.67071757 90.71585083 11.67855835 C85.02479791 11.68764255 79.33406995 11.67569713 73.64306641 11.65185547 C67.06602139 11.62461985 60.48975078 11.63348006 53.91272438 11.6609875 C48.25986636 11.68368186 42.60724135 11.68687802 36.9543525 11.67379415 C33.5805829 11.66600457 30.20717736 11.66494433 26.83343124 11.68147659 C23.0744527 11.69414512 19.31697213 11.6748617 15.55810547 11.64697266 C14.44112274 11.65709381 13.32414001 11.66721497 12.17330933 11.67764282 C4.72288338 11.57499564 4.72288338 11.57499564 1.27761841 8.83456421 C0 6 0 6 0 0 Z " fill="#212259" transform="translate(136,107)"/>
<path d="M0 0 C4.68118555 3.96134287 9.25568047 8.01571399 13.75 12.1875 C14.31332031 12.70763672 14.87664062 13.22777344 15.45703125 13.76367188 C18.01715744 16.13315037 20.54419284 18.52283405 23 21 C22.2471875 21.1959375 21.494375 21.391875 20.71875 21.59375 C13.22998415 23.70223747 6.59984667 26.46878096 -0.265625 30.09375 C-6.43373661 33.33547737 -12.45845563 36.19850386 -19.5 36.6875 C-20.78390625 36.78611328 -20.78390625 36.78611328 -22.09375 36.88671875 C-23.03734375 36.94279297 -23.03734375 36.94279297 -24 37 C-24 37.66 -24 38.32 -24 39 C-24.66 39 -25.32 39 -26 39 C-27.39117946 37.02464562 -28.64592836 35.07334844 -29.875 33 C-30.40963867 32.11284302 -30.40963867 32.11284302 -30.95507812 31.20776367 C-38 19.40558765 -38 19.40558765 -38 16 C-38.66 16 -39.32 16 -40 16 C-41.27253436 12.35206816 -42.32829194 8.8063457 -43 5 C-39.87709365 5.48578543 -37.00419641 5.9986012 -34 7 C-21.13894944 8.39897707 -11.60816562 5.26666774 0 0 Z " fill="#029CE1" transform="translate(112,228)"/>
<path d="M0 0 C32.67 0 65.34 0 99 0 C99 3.96 99 7.92 99 12 C86.2396613 12.02312121 73.47932755 12.04091395 60.71897221 12.05181217 C54.79449285 12.05704149 48.87002778 12.06414001 42.94555664 12.07543945 C37.23327429 12.08626661 31.52100572 12.09227647 25.80871391 12.09487724 C23.62411723 12.0967318 21.43952135 12.100353 19.2549305 12.10573006 C16.20647651 12.11293821 13.15808021 12.11399104 10.10961914 12.11352539 C8.74045349 12.1189183 8.74045349 12.1189183 7.34362793 12.12442017 C1.11405216 12.11405216 1.11405216 12.11405216 0 11 C0 7.37 0 3.74 0 0 Z " fill="#1D2C64" transform="translate(152,130)"/>
<path d="M0 0 C3.40713122 1.4601991 5.73893429 3.03722424 8 6 C8.54349497 8.6594317 8.73792517 11.2918934 9 14 C10.89755144 16.34973818 10.89755144 16.34973818 14.125 16.125 C15.07375 16.08375 16.0225 16.0425 17 16 C17.07476562 15.34773438 17.14953125 14.69546875 17.2265625 14.0234375 C18.23174746 7.34191397 19.78594006 4.3072669 25 0 C28.80489745 1.49478114 30.66190835 3.69442214 33 7 C34.91957414 12.75872241 35.12998497 19.67868904 33.1640625 25.45703125 C29.75639285 31.43760585 24.43481132 34.85506289 18 37 C12.03741509 37.53365648 7.0228603 37.57181177 2 34 C-3.54854458 28.58049134 -7.21991912 23.73230515 -7.5 15.75 C-7.42066337 9.24439672 -4.54791919 4.54791919 0 0 Z " fill="#272657" transform="translate(188,299)"/>
<path d="M0 0 C0.29341689 3.05153561 0.42936649 5.95732881 0 9 C-2.25 11.125 -2.25 11.125 -5 13 C-8.81739202 18.05546511 -9.64736099 21.96738628 -9.37890625 28.2890625 C-8.40492251 35.25756472 -5.02603722 39.50433038 0.31640625 43.87109375 C4.71537888 46.82075289 9.92131392 46.57097654 15 46 C17.25857497 45.16629783 19.23112414 44.1827064 21.30859375 42.97265625 C23 42 23 42 26 41 C27.10636395 38.60931266 27.10636395 38.60931266 28 36 C28.66 35.01 29.32 34.02 30 33 C30.67914216 26.39379902 31.11136984 19.52908357 27 14 C26.113125 13.401875 25.22625 12.80375 24.3125 12.1875 C22 10 22 10 21.6796875 7.75390625 C21.68677453 5.4825128 21.78265654 3.26037202 22 1 C28.47642728 2.96255372 33.23656649 7.38085763 36.9375 12.9375 C40.48174079 19.87341492 40.20874907 28.30005947 38.30078125 35.71875 C35.70522708 42.11454592 31.68645385 47.3984602 25.75 50.9375 C23 52 23 52 21 52 C21 52.66 21 53.32 21 54 C12.98953905 55.79796843 4.6274994 56.30229022 -2.83203125 52.45703125 C-8.63729136 48.55547806 -14.61376833 43.33640983 -16.6328125 36.421875 C-18.04079615 27.13517435 -18.37248447 17.07998984 -13 9 C-4.58305648 0 -4.58305648 0 0 0 Z " fill="#EFBC1A" transform="translate(191,289)"/>
<path d="M0 0 C2.875 0.875 2.875 0.875 4.875 2.875 C5.14915466 5.8979187 5.14915466 5.8979187 5.18139648 9.83154297 C5.18972 10.54717407 5.19804352 11.26280518 5.20661926 12.00012207 C5.23077021 14.37253211 5.23949764 16.74466746 5.24609375 19.1171875 C5.2550566 20.76384567 5.26417838 22.41050298 5.27345276 24.05715942 C5.28995941 27.51224753 5.29764583 30.96723855 5.30053711 34.42236328 C5.30592113 38.85026319 5.34359374 43.27725086 5.38928127 47.70489311 C5.41902251 51.10726248 5.42626002 54.50941149 5.42726326 57.91189957 C5.43147187 59.54421286 5.44393192 61.17652644 5.46478081 62.80871201 C5.49163525 65.09304591 5.4868897 67.3752569 5.47436523 69.65966797 C5.47943588 70.95935516 5.48450653 72.25904236 5.48973083 73.59811401 C4.875 76.875 4.875 76.875 2.47035217 79.3298645 C-0.125 80.875 -0.125 80.875 -2.25 80.8125 C-4.50287077 79.68606462 -5.60114132 78.90694918 -7.125 76.875 C-7.51268005 73.76979065 -7.51268005 73.76979065 -7.52905273 69.89672852 C-7.53591599 69.19070496 -7.54277924 68.4846814 -7.54985046 67.75726318 C-7.5681569 65.42260648 -7.56427563 63.08861935 -7.55859375 60.75390625 C-7.56315391 59.1310962 -7.56845899 57.50828808 -7.57447815 55.88548279 C-7.58341691 52.48338987 -7.58097777 49.08153159 -7.57104492 45.67944336 C-7.55955729 41.32003776 -7.579759 36.96144241 -7.60896206 32.60214329 C-7.62731104 29.25036983 -7.6270342 25.89879098 -7.62132454 22.5469799 C-7.62117115 20.93981731 -7.62723037 19.33264168 -7.63961601 17.72552681 C-7.65449956 15.47739021 -7.64387034 13.23075569 -7.62670898 10.98266602 C-7.62654282 9.70375992 -7.62637665 8.42485382 -7.62620544 7.10719299 C-7.125 3.875 -7.125 3.875 -5.28895569 1.42295837 C-3.125 -0.125 -3.125 -0.125 0 0 Z " fill="#019BDF" transform="translate(203.125,160.125)"/>
<path d="M0 0 C7.58343401 6.47751655 15.08008659 13.0271254 22.40991211 19.79150391 C26.62171524 23.67447967 30.91128226 27.46374071 35.234375 31.22265625 C37 33 37 33 37 35 C34.23434618 35.92188461 32.61716298 36.11785222 29.76953125 36.09765625 C28.96708984 36.09443359 28.16464844 36.09121094 27.33789062 36.08789062 C26.50451172 36.07951172 25.67113281 36.07113281 24.8125 36.0625 C23.5450293 36.05573242 23.5450293 36.05573242 22.25195312 36.04882812 C20.16793845 36.03705403 18.08396023 36.0191189 16 36 C16 35.34 16 34.68 16 34 C15.030625 33.896875 14.06125 33.79375 13.0625 33.6875 C8.51406161 33.05370121 4.30582896 31.55244173 0 30 C-1.22914592 20.63873691 -2.36799953 11.46576558 -2 2 C-1.34 2 -0.68 2 0 2 C0 1.34 0 0.68 0 0 Z " fill="#22245B" transform="translate(61,182)"/>
<path d="M0 0 C1.42125817 4.2637745 0.92323821 8.17503769 0.6875 12.625 C0.65205078 13.48996094 0.61660156 14.35492188 0.58007812 15.24609375 C0.28922531 21.03710362 -0.60160502 26.37217367 -2 32 C-2.60787354 32.04608398 -3.21574707 32.09216797 -3.84204102 32.13964844 C-7.84173772 32.46002238 -10.84331197 32.93127718 -14.5625 34.5625 C-21.04114177 37.26193407 -31.35824617 37.21391794 -38 35 C-36.40976091 30.84770905 -33.3621194 28.32222886 -30.125 25.4375 C-29.54782227 24.91446289 -28.97064453 24.39142578 -28.37597656 23.85253906 C-27.17678653 22.76587532 -25.97559153 21.68142031 -24.77246094 20.59912109 C-22.58529411 18.62585075 -20.41849028 16.6311913 -18.25292969 14.63427734 C-15.84290213 12.41451512 -13.42060614 10.20821313 -11 8 C-10.11570312 7.18660156 -9.23140625 6.37320313 -8.3203125 5.53515625 C-7.51335937 4.80167969 -6.70640625 4.06820312 -5.875 3.3125 C-4.81925781 2.34763672 -4.81925781 2.34763672 -3.7421875 1.36328125 C-2 0 -2 0 0 0 Z " fill="#24265C" transform="translate(343,182)"/>
<path d="M0 0 C6.75 0.75 6.75 0.75 9 3 C9.24050903 5.5942688 9.24050903 5.5942688 9.22705078 8.91845703 C9.22682419 10.78016037 9.22682419 10.78016037 9.22659302 12.67947388 C9.216379 14.0389217 9.205947 15.3983679 9.1953125 16.7578125 C9.19158284 18.14500729 9.18873565 19.53220471 9.18673706 20.91940308 C9.17909684 24.57240051 9.15944516 28.22523917 9.1373291 31.87817383 C9.11687896 35.60495862 9.10773713 39.33176904 9.09765625 43.05859375 C9.07619951 50.37246825 9.04205903 57.68621189 9 65 C4.37048115 62.85094144 0.8281473 60.31241193 -2 56 C-2.95725199 51.92635212 -2.86561254 47.99545349 -2.75390625 43.828125 C-2.74874496 42.66875427 -2.74358368 41.50938354 -2.73826599 40.31488037 C-2.72117222 37.87397626 -2.68739306 35.43313873 -2.63793945 32.99267578 C-2.56247075 29.24854873 -2.53549937 25.50652274 -2.51757812 21.76171875 C-2.49499208 19.38799249 -2.46969569 17.01429014 -2.44140625 14.640625 C-2.42395103 12.9578244 -2.42395103 12.9578244 -2.40614319 11.24102783 C-2.37247902 9.6836087 -2.37247902 9.6836087 -2.33813477 8.09472656 C-2.32146255 7.18096252 -2.30479034 6.26719849 -2.28761292 5.32574463 C-2 3 -2 3 0 0 Z " fill="#01A0E5" transform="translate(175,160)"/>
<path d="M0 0 C2.20825456 1.64327324 2.91916652 2.55395365 3.41459656 5.28778076 C3.43206436 6.18377991 3.44953217 7.07977905 3.4675293 8.00292969 C3.49312424 9.02118835 3.51871918 10.03944702 3.54508972 11.08856201 C3.55950859 12.73855194 3.55950859 12.73855194 3.57421875 14.421875 C3.5889473 15.55522278 3.60367584 16.68857056 3.61885071 17.85626221 C3.64282147 20.25697066 3.65822881 22.65777747 3.66577148 25.05859375 C3.68734147 28.72306767 3.76749023 32.38332527 3.84960938 36.046875 C3.86560784 38.38018627 3.87809148 40.71352483 3.88671875 43.046875 C3.93453743 44.68471954 3.93453743 44.68471954 3.98332214 46.35565186 C3.9175576 53.82297304 3.9175576 53.82297304 1.26455688 57.22619629 C-0.74502792 59.01281344 -2.74683137 60.53693145 -5 62 C-5.99 62.66 -6.98 63.32 -8 64 C-8.06948567 56.09843395 -8.12280364 48.19699537 -8.15543652 40.29519939 C-8.17109805 36.62613324 -8.19234475 32.95727599 -8.22631836 29.28833008 C-8.25889514 25.74811053 -8.27684934 22.20809201 -8.28463173 18.66773415 C-8.29287924 16.65852345 -8.31630137 14.64939372 -8.33988953 12.64030457 C-8.34011612 11.41926529 -8.34034271 10.19822601 -8.34057617 8.94018555 C-8.34723801 7.86318893 -8.35389984 6.78619232 -8.36076355 5.67655945 C-8 3 -8 3 -6.63496399 1.1521759 C-4.29401037 -0.49751814 -2.79704804 -0.41955721 0 0 Z " fill="#00A1E6" transform="translate(229,160)"/>
<path d="M0 0 C5.68947552 1.70152539 10.68493818 4.30355094 15.90234375 7.078125 C23.4831603 10.99268923 30.52506944 12.27248989 39 12.625 C39.77472656 12.66367188 40.54945313 12.70234375 41.34765625 12.7421875 C43.23143415 12.83521357 45.11568256 12.91863175 47 13 C45.41706034 19.5839083 43.49082515 22.97339489 38 27 C38 26.34 38 25.68 38 25 C37.05125 25.061875 36.1025 25.12375 35.125 25.1875 C26.95460396 25.17102743 19.24532751 21.44765584 12 18 C12 17.34 12 16.68 12 16 C11.16210938 15.72414062 10.32421875 15.44828125 9.4609375 15.1640625 C5.8326725 13.94372055 2.22841365 12.6667898 -1.375 11.375 C-2.01566406 11.14554688 -2.65632813 10.91609375 -3.31640625 10.6796875 C-4.87781405 10.12037724 -6.43893701 9.56027192 -8 9 C-7.04270084 7.87411986 -6.08412105 6.7493285 -5.125 5.625 C-4.59132813 4.99851563 -4.05765625 4.37203125 -3.5078125 3.7265625 C-2.38567993 2.44163349 -1.20628025 1.20628025 0 0 Z " fill="#00A0E5" transform="translate(277,240)"/>
<path d="M0 0 C2.140625 1.62890625 2.140625 1.62890625 4.25 3.5625 C4.95640625 4.20316406 5.6628125 4.84382812 6.390625 5.50390625 C6.92171875 5.99761719 7.4528125 6.49132812 8 7 C5.25953988 8.82697342 3.88665716 9.37365694 0.8125 10.125 C-4.86585723 11.74262306 -9.90748531 14.3120587 -15.11401367 17.04345703 C-21.33641039 20.28472546 -27.40972987 23.19512013 -34.5 23.6875 C-35.78390625 23.78611328 -35.78390625 23.78611328 -37.09375 23.88671875 C-37.7228125 23.92410156 -38.351875 23.96148437 -39 24 C-39 24.66 -39 25.32 -39 26 C-39.66 26 -40.32 26 -41 26 C-42.7265625 23.6640625 -42.7265625 23.6640625 -44.625 20.625 C-45.25664063 19.62726563 -45.88828125 18.62953125 -46.5390625 17.6015625 C-48 15 -48 15 -48 13 C-46.31583984 12.96132812 -46.31583984 12.96132812 -44.59765625 12.921875 C-36.22488698 12.6439058 -29.37198656 12.26418831 -22 8 C-20.06648267 6.96092055 -18.12624178 5.93497613 -16.18603516 4.90844727 C-14.83317058 4.18906689 -13.48373832 3.46318653 -12.13818359 2.73022461 C-4.20265874 -1.58784663 -4.20265874 -1.58784663 0 0 Z " fill="#019FE3" transform="translate(127,241)"/>
<path d="M0 0 C-0.99 3.96 -1.98 7.92 -3 12 C-16.18922016 16.19061747 -28.75235514 18.57795573 -42 13 C-42 12.34 -42 11.68 -42 11 C-43.32 10.67 -44.64 10.34 -46 10 C-44.90220176 8.84806377 -43.79650554 7.70365063 -42.6875 6.5625 C-41.76517578 5.60537109 -41.76517578 5.60537109 -40.82421875 4.62890625 C-39 3 -39 3 -36 2 C-35.01 2.33 -34.02 2.66 -33 3 C-24.19085997 3.61623571 -16.5651525 3.63714104 -8.4296875 -0.22265625 C-6 -1 -6 -1 0 0 Z " fill="#029BDF" transform="translate(341,214)"/>
<path d="M0 0 C2.25796383 0.07901156 4.50693986 0.08205633 6.76611328 0.07470703 C17.505135 0.2254734 17.505135 0.2254734 21.45849609 3.12890625 C23.49658203 5.95361328 23.49658203 5.95361328 23.49658203 11.95361328 C7.98658203 12.28361328 -7.52341797 12.61361328 -23.50341797 12.95361328 C-23.50341797 9.1285198 -22.52509804 8.1878677 -20.05029297 5.32080078 C-14.07018848 -0.45091322 -7.81417879 -0.28623993 0 0 Z " fill="#23245A" transform="translate(244.50341796875,282.04638671875)"/>
<path d="M0 0 C2.2493229 -0.023672 4.48739565 -0.12181792 6.734375 -0.22314453 C12.63700815 -0.35324231 17.37649305 -0.36447019 22.43261719 3.10400391 C24.9267093 5.56996386 27.12458095 7.9891613 29.1484375 10.85107422 C29.1484375 11.18107422 29.1484375 11.51107422 29.1484375 11.85107422 C13.6384375 11.85107422 -1.8715625 11.85107422 -17.8515625 11.85107422 C-17.8515625 4.85107422 -17.8515625 4.85107422 -16.30517578 2.45996094 C-11.51103956 -0.68365674 -5.56639787 0.02768753 0 0 Z " fill="#22245B" transform="translate(153.8515625,282.14892578125)"/>
<path d="M0 0 C6.75 0.75 6.75 0.75 9 3 C9.17553419 6.08524939 9.23122797 9.07964202 9.1953125 12.1640625 C9.1924826 13.07127045 9.18965271 13.97847839 9.18673706 14.91317749 C9.17552153 17.81725123 9.15041463 20.72101912 9.125 23.625 C9.11497197 25.59114139 9.10584581 27.5572876 9.09765625 29.5234375 C9.07557772 34.34907659 9.04103865 39.1744864 9 44 C6.64460338 42.02472503 4.31974367 40.01695406 2 38 C1.04287109 37.18926025 0.08574219 36.37852051 -0.90039062 35.54321289 C-3.5861987 32.28994979 -3.61922366 30.4883003 -3.59375 26.30859375 C-3.59117187 25.03435547 -3.58859375 23.76011719 -3.5859375 22.44726562 C-3.57143555 21.78895752 -3.55693359 21.13064941 -3.54199219 20.45239258 C-3.50003699 18.43927506 -3.50093468 16.42949789 -3.5078125 14.41601562 C-3.39904232 3.6749606 -3.39904232 3.6749606 0 0 Z " fill="#029ADE" transform="translate(151,160)"/>
<path d="M0 0 C3.5 0.25 3.5 0.25 5.5 2.25 C6.06322239 6.39396222 6.12737292 10.54495384 6.20019531 14.72387695 C6.23311606 16.10445057 6.28744653 17.48469715 6.36425781 18.86352539 C6.99554724 30.26927849 6.99554724 30.26927849 3.25585938 35.22216797 C-3.37062316 41.25 -3.37062316 41.25 -5.5 41.25 C-5.5493521 35.73243524 -5.58569662 30.21499829 -5.60986328 24.69726562 C-5.61993534 22.81931318 -5.63359362 20.94137647 -5.65087891 19.06347656 C-5.67507453 16.3677991 -5.68647083 13.67232854 -5.6953125 10.9765625 C-5.70563507 10.13380768 -5.71595764 9.29105286 -5.72659302 8.42276001 C-5.72699144 6.36378753 -5.62257588 4.30532065 -5.5 2.25 C-3.5 0.25 -3.5 0.25 0 0 Z " fill="#01A0E5" transform="translate(250.5,160.75)"/>
<path d="M0 0 C2.62901288 1.52206009 4.84365964 2.84365964 7 5 C7.25878906 7.93334961 7.25878906 7.93334961 7.265625 11.65234375 C7.26753845 12.30828018 7.2694519 12.96421661 7.27142334 13.64002991 C7.27278468 15.0278461 7.26909174 16.41567505 7.26074219 17.8034668 C7.25005834 19.92591061 7.2606296 22.04750475 7.2734375 24.16992188 C7.27211556 25.51823103 7.26955245 26.86653966 7.265625 28.21484375 C7.26336914 29.44323975 7.26111328 30.67163574 7.25878906 31.93725586 C7 35 7 35 5 38 C1.97559832 38.38609383 -0.06639663 38.62039361 -2.66430664 36.89404297 C-4.65437275 34.07208485 -4.40599444 31.74399534 -4.43359375 28.3203125 C-4.44145653 27.34564529 -4.44145653 27.34564529 -4.44947815 26.35128784 C-4.45589431 24.97785875 -4.45456648 23.60437468 -4.44604492 22.23095703 C-4.43755535 20.13864104 -4.46625962 18.04907601 -4.49804688 15.95703125 C-4.4996597 14.61979248 -4.49907981 13.28254891 -4.49609375 11.9453125 C-4.49794678 10.73375488 -4.4997998 9.52219727 -4.50170898 8.27392578 C-3.91437379 4.44124212 -2.64227808 2.77234434 0 0 Z " fill="#F6C01F" transform="translate(200,278)"/>
<path d="M0 0 C0.87374268 0.54575684 0.87374268 0.54575684 1.76513672 1.10253906 C1.76513672 2.09253906 1.76513672 3.08253906 1.76513672 4.10253906 C-14.58326 12.45928776 -14.58326 12.45928776 -22.51220703 15.41113281 C-24.23484584 15.97157446 -24.23484584 15.97157446 -25.23486328 17.10253906 C-28.22666052 17.2558134 -31.17942652 17.33419156 -34.17236328 17.35253906 C-35.00960937 17.37316406 -35.84685547 17.39378906 -36.70947266 17.41503906 C-37.510625 17.42019531 -38.31177734 17.42535156 -39.13720703 17.43066406 C-40.24310181 17.44468262 -40.24310181 17.44468262 -41.37133789 17.45898438 C-42.29378296 17.28254395 -42.29378296 17.28254395 -43.23486328 17.10253906 C-45.23486328 14.10253906 -45.23486328 14.10253906 -45.23486328 10.10253906 C-44.13271484 10.18375 -43.03056641 10.26496094 -41.89501953 10.34863281 C-29.0721509 10.99248269 -19.26112179 8.18110397 -8.10693359 1.90527344 C-7.40922852 1.52177734 -6.71152344 1.13828125 -5.99267578 0.74316406 C-5.3676416 0.38254883 -4.74260742 0.02193359 -4.09863281 -0.34960938 C-2.23486328 -0.89746094 -2.23486328 -0.89746094 0 0 Z " fill="#1E2960" transform="translate(121.23486328125,236.8974609375)"/>
<path d="M0 0 C0 0.66 0 1.32 0 2 C10.51532952 4.95167144 21.64569389 5.56255419 31.94921875 1.55859375 C34.34042747 0.90727404 35.68228229 1.20998787 38 2 C38 2.66 38 3.32 38 4 C37.34 4 36.68 4 36 4 C35.67 5.98 35.34 7.96 35 10 C20.82589074 12.30565511 5.88393055 13.02235998 -6.34765625 4.33203125 C-6.89292969 3.89246094 -7.43820312 3.45289063 -8 3 C-5.53387212 -0.1151089 -3.89156016 -0.31553191 0 0 Z " fill="#20255C" transform="translate(299,225)"/>
<path d="M0 0 C3.32620361 1.28111729 6.47059654 2.71867444 9.625 4.375 C11.41361039 5.25623056 13.20532359 6.13118989 15 7 C15.78890625 7.40089844 16.5778125 7.80179688 17.390625 8.21484375 C26.5297584 12.25273131 36.22366477 11.34470918 46 11 C44.92598892 13.91517292 44.22189824 15.77810176 42 18 C39.27706256 18.06269922 36.70715083 18.00397013 34 17.8125 C33.22543457 17.75843994 32.45086914 17.70437988 31.65283203 17.64868164 C20.77581111 16.77319189 12.6444037 12.99088289 3.22265625 7.7421875 C0.11560605 5.9424368 0.11560605 5.9424368 -3 5 C-1.125 1.125 -1.125 1.125 0 0 Z " fill="#1F265D" transform="translate(282,236)"/>
<path d="M0 0 C1.79296875 1.3359375 1.79296875 1.3359375 3.79296875 4.3359375 C-10.6017043 10.86685398 -23.0074314 14.52526902 -38.58203125 8.9921875 C-39.11828125 8.775625 -39.65453125 8.5590625 -40.20703125 8.3359375 C-40.53703125 6.6859375 -40.86703125 5.0359375 -41.20703125 3.3359375 C-38.11142028 2.37150968 -37.1862871 2.34180849 -33.89453125 3.2734375 C-23.64055267 6.02310773 -14.05057664 5.12550895 -4.6953125 0.234375 C-2.20703125 -0.6640625 -2.20703125 -0.6640625 0 0 Z " fill="#1F2860" transform="translate(108.20703125,224.6640625)"/>
<path d="M0 0 C-0.33 0.99 -0.66 1.98 -1 3 C-61.39 2.505 -61.39 2.505 -123 2 C-123 1.67 -123 1.34 -123 1 C-107.25810134 0.86951591 -91.5162019 0.7391259 -75.77430153 0.60884857 C-68.4654194 0.54835928 -61.15653752 0.48783895 -53.84765625 0.42724609 C-47.4788262 0.37444662 -41.10999567 0.32170484 -34.74116457 0.26903296 C-31.36749828 0.24112983 -27.99383225 0.21319739 -24.62016678 0.18519592 C-20.85826936 0.15398661 -17.09637112 0.12287925 -13.33447266 0.09179688 C-12.21022385 0.08244614 -11.08597504 0.0730954 -9.92765808 0.0634613 C-8.90679611 0.05504715 -7.88593414 0.046633 -6.83413696 0.03796387 C-5.94368494 0.03058952 -5.05323292 0.02321518 -4.1357975 0.01561737 C-2.75722536 0.00553698 -1.378609 0 0 0 Z " fill="#0B75B6" transform="translate(264,117)"/>
<path d="M0 0 C0.99 0 1.98 0 3 0 C2.67 12.54 2.34 25.08 2 38 C1.01 38 0.02 38 -1 38 C-1.02464928 32.74894558 -1.04283568 27.49792455 -1.05493164 22.24682617 C-1.05997218 20.45905979 -1.06680454 18.67129755 -1.07543945 16.88354492 C-1.0875173 14.31948832 -1.09323094 11.75548603 -1.09765625 9.19140625 C-1.10281754 8.3872377 -1.10797882 7.58306915 -1.11329651 6.75453186 C-1.11349215 4.83598285 -1.06201983 2.91754632 -1 1 C-0.67 0.67 -0.34 0.34 0 0 Z " fill="#E43B42" transform="translate(60,114)"/>
<path d="M0 0 C0 0.33 0 0.66 0 1 C-15.51 1 -31.02 1 -47 1 C-47 0.34 -47 -0.32 -47 -1 C-40.94970666 -1.1924471 -34.89922224 -1.37114137 -28.84814453 -1.53710938 C-26.78976557 -1.5955031 -24.73148957 -1.65765182 -22.67333984 -1.72363281 C-19.71470891 -1.81782946 -16.7559704 -1.89850972 -13.796875 -1.9765625 C-12.87694763 -2.00875885 -11.95702026 -2.0409552 -11.00921631 -2.0741272 C-10.1486261 -2.09429901 -9.28803589 -2.11447083 -8.40136719 -2.13525391 C-7.64635925 -2.15746002 -6.89135132 -2.17966614 -6.11346436 -2.20254517 C-3.69109526 -1.97039592 -2.09562804 -1.20464687 0 0 Z " fill="#1C2C64" transform="translate(183,293)"/>
<path d="M0 0 C1.32 0.33 2.64 0.66 4 1 C3.8818344 5.09362106 3.75759216 9.18700767 3.62768555 13.28027344 C3.58434154 14.6731259 3.54266604 16.06603131 3.50268555 17.45898438 C3.44497068 19.45976651 3.38078131 21.46035859 3.31640625 23.4609375 C3.27974854 24.66540527 3.24309082 25.86987305 3.20532227 27.11083984 C3 30 3 30 2 32 C1.34 32 0.68 32 0 32 C0 21.44 0 10.88 0 0 Z " fill="#DFDFE3" transform="translate(59,152)"/>
<path d="M0 0 C0 1.65 0 3.3 0 5 C-0.99 5.165 -1.98 5.33 -3 5.5 C-8.26209898 7.15862446 -8.26209898 7.15862446 -15 15 C-6.75 15.33 1.5 15.66 10 16 C10 16.33 10 16.66 10 17 C0.43 17 -9.14 17 -19 17 C-19 15 -19 15 -17.56640625 13.5546875 C-16.90511719 13.00039063 -16.24382812 12.44609375 -15.5625 11.875 C-11.58378677 8.50621429 -7.7229439 5.0296018 -3.8828125 1.50390625 C-2 0 -2 0 0 0 Z " fill="#168FCA" transform="translate(251,266)"/>
<path d="M0 0 C0.66 0 1.32 0 2 0 C2 11.55 2 23.1 2 35 C-0.40675213 31.38987181 -0.31691652 29.5159355 -0.44921875 25.21484375 C-0.47095657 24.55795059 -0.4926944 23.90105743 -0.51509094 23.22425842 C-0.55893259 21.83836192 -0.59814952 20.45231243 -0.63305664 19.06616211 C-0.68740047 16.94139152 -0.75757494 14.8175799 -0.83007812 12.69335938 C-1.14408858 2.28817716 -1.14408858 2.28817716 0 0 Z " fill="#C9C6D2" transform="translate(342,150)"/>
<path d="M0 0 C0.33 0 0.66 0 1 0 C1 1.98 1 3.96 1 6 C-14.51 6.33 -30.02 6.66 -46 7 C-46 6.01 -46 5.02 -46 4 C-30.82 4.33 -15.64 4.66 0 5 C0 3.35 0 1.7 0 0 Z " fill="#154078" transform="translate(267,288)"/>
<path d="M0 0 C4 2 4 2 6 4 C6 4.99 6 5.98 6 7 C2.04 7 -1.92 7 -6 7 C-4.02 4.69 -2.04 2.38 0 0 Z " fill="#0C9AD4" transform="translate(213,299)"/>
<path d="M0 0 C3.7952131 1.49097658 5.61042731 3.75700849 8 7 C4.04 7 0.08 7 -4 7 C-2 2 -2 2 0 0 Z " fill="#1292C4" transform="translate(188,299)"/>
<path d="M0 0 C6.27 0.33 12.54 0.66 19 1 C18.67 2.32 18.34 3.64 18 5 C17.01 5 16.02 5 15 5 C15.33 4.34 15.66 3.68 16 3 C15.02160156 3.03480469 15.02160156 3.03480469 14.0234375 3.0703125 C8.91301097 3.17583753 4.79574967 3.01926302 0 1 C0 0.67 0 0.34 0 0 Z " fill="#0570B0" transform="translate(305,252)"/>
<path d="M0 0 C0.33 0.66 0.66 1.32 1 2 C0.67 2.66 0.34 3.32 0 4 C-5.55357002 5.15332076 -11.09443457 5.18312939 -16.75 5.1875 C-17.59949219 5.19974609 -18.44898438 5.21199219 -19.32421875 5.22460938 C-20.54818359 5.22750977 -20.54818359 5.22750977 -21.796875 5.23046875 C-22.90047363 5.23663208 -22.90047363 5.23663208 -24.02636719 5.24291992 C-26 5 -26 5 -29 3 C-28.40574219 3.01571045 -27.81148438 3.0314209 -27.19921875 3.04760742 C-24.46624546 3.11056569 -21.73342545 3.14918095 -19 3.1875 C-18.06542969 3.21263672 -17.13085938 3.23777344 -16.16796875 3.26367188 C-10.04086275 3.32794222 -5.59806142 2.51516675 0 0 Z " fill="#114783" transform="translate(334,231)"/>
<path d="M0 0 C1.32 0.33 2.64 0.66 4 1 C3.67 8.92 3.34 16.84 3 25 C2.67 25 2.34 25 2 25 C2 18.4 2 11.8 2 5 C1.34 5 0.68 5 0 5 C0 3.35 0 1.7 0 0 Z " fill="#E7E3E8" transform="translate(59,152)"/>
<path d="M0 0 C0 3.57996647 -0.92545363 4.23393817 -3 7 C-3 7.99 -3 8.98 -3 10 C-4.65 9.67 -6.3 9.34 -8 9 C-7.04270084 7.87411986 -6.08412105 6.7493285 -5.125 5.625 C-4.59132813 4.99851563 -4.05765625 4.37203125 -3.5078125 3.7265625 C-2.38567993 2.44163349 -1.20628025 1.20628025 0 0 Z " fill="#159EDB" transform="translate(277,240)"/>
<path d="M0 0 C3.875 1.75 3.875 1.75 5 4 C2.36 4 -0.28 4 -3 4 C-2.01 2.68 -1.02 1.36 0 0 Z " fill="#01A2E8" transform="translate(190,301)"/>
<path d="M0 0 C0.66 0 1.32 0 2 0 C2 1.65 2 3.3 2 5 C0.02 5 -1.96 5 -4 5 C-2.71937515 3.2925002 -1.38232443 1.62626404 0 0 Z " fill="#244378" transform="translate(249,266)"/>
<path d="M0 0 C3.16115776 1.36983503 3.9927092 1.9890638 6 5 C4.02 5 2.04 5 0 5 C0 3.35 0 1.7 0 0 Z " fill="#1C427A" transform="translate(152,266)"/>
<path d="M0 0 C0.33 0.66 0.66 1.32 1 2 C0.67 2.66 0.34 3.32 0 4 C-2.50390625 4.4140625 -2.50390625 4.4140625 -5.5625 4.625 C-6.57441406 4.69976562 -7.58632813 4.77453125 -8.62890625 4.8515625 C-9.41136719 4.90054688 -10.19382812 4.94953125 -11 5 C-8.49751135 3.33167423 -6.58850813 2.37618326 -3.8125 1.375 C-3.09707031 1.11460937 -2.38164062 0.85421875 -1.64453125 0.5859375 C-1.10183594 0.39257812 -0.55914062 0.19921875 0 0 Z " fill="#0863A1" transform="translate(334,231)"/>
<path d="M0 0 C-0.99 0.33 -1.98 0.66 -3 1 C-5.00781177 1.98422146 -7.00892752 2.98234073 -9 4 C-9.66 3.34 -10.32 2.68 -11 2 C-3.57142857 -1.57142857 -3.57142857 -1.57142857 0 0 Z " fill="#0D81BF" transform="translate(127,241)"/>
</svg>
